<mxfile host="Electron" agent="Mozilla/5.0 (Windows NT 10.0; Win64; x64) AppleWebKit/537.36 (KHTML, like Gecko) draw.io/28.1.2 Chrome/138.0.7204.243 Electron/37.4.0 Safari/537.36" version="28.1.2">
  <diagram name="Seite-1" id="DR4MUnVHHsaWpGg1AG_Q">
    <mxGraphModel dx="1425" dy="1998" grid="1" gridSize="10" guides="1" tooltips="1" connect="1" arrows="1" fold="1" page="1" pageScale="1" pageWidth="827" pageHeight="1169" math="0" shadow="0">
      <root>
        <mxCell id="0" />
        <mxCell id="1" parent="0" />
        <mxCell id="OLEORHhMIxXnmYkuvq8G-6" value="Petzold" style="rounded=0;whiteSpace=wrap;html=1;verticalAlign=top;fillColor=#f8cecc;strokeColor=#b85450;opacity=60;" vertex="1" parent="1">
          <mxGeometry x="270" y="-1160" width="100" height="550" as="geometry" />
        </mxCell>
        <mxCell id="OLEORHhMIxXnmYkuvq8G-1" value="MINPACK" style="rounded=0;whiteSpace=wrap;html=1;verticalAlign=top;fillColor=#f5f5f5;strokeColor=#666666;opacity=60;fontColor=#333333;" vertex="1" parent="1">
          <mxGeometry x="719" y="-1160" width="100" height="550" as="geometry" />
        </mxCell>
        <mxCell id="fMTvzNcV0Mz-k2nzS_J5-17" value="SSI" style="rounded=0;whiteSpace=wrap;html=1;verticalAlign=top;fillColor=#e1d5e7;strokeColor=#9673a6;opacity=60;" parent="1" vertex="1">
          <mxGeometry x="829" y="-1160" width="100" height="550" as="geometry" />
        </mxCell>
        <mxCell id="DL42vKzp8nD3nBXhA-Hq-26" value="LAPACK" style="rounded=0;whiteSpace=wrap;html=1;verticalAlign=top;fillColor=#dae8fc;strokeColor=#6c8ebf;opacity=60;" parent="1" vertex="1">
          <mxGeometry x="939" y="-1160" width="100" height="550" as="geometry" />
        </mxCell>
        <mxCell id="DL42vKzp8nD3nBXhA-Hq-17" value="Suite Sparse" style="rounded=0;whiteSpace=wrap;html=1;verticalAlign=top;fillColor=#ffe6cc;strokeColor=#d79b00;opacity=60;" parent="1" vertex="1">
          <mxGeometry x="610" y="-1160" width="99" height="550" as="geometry" />
        </mxCell>
        <mxCell id="DL42vKzp8nD3nBXhA-Hq-16" value="OpenModelica" style="rounded=0;whiteSpace=wrap;html=1;verticalAlign=top;fillColor=#d5e8d4;strokeColor=#82b366;opacity=60;" parent="1" vertex="1">
          <mxGeometry x="59" y="-1160" width="191" height="550" as="geometry" />
        </mxCell>
        <mxCell id="DL42vKzp8nD3nBXhA-Hq-15" value="SUNDIALS" style="rounded=0;whiteSpace=wrap;html=1;verticalAlign=top;fillColor=#fff2cc;strokeColor=#d6b656;opacity=60;" parent="1" vertex="1">
          <mxGeometry x="380" y="-1160" width="220" height="550" as="geometry" />
        </mxCell>
        <mxCell id="DL42vKzp8nD3nBXhA-Hq-5" value="ODE Solver" style="swimlane;horizontal=0;whiteSpace=wrap;html=1;startSize=40;" parent="1" vertex="1">
          <mxGeometry x="9" y="-1130" width="1041" height="160" as="geometry" />
        </mxCell>
        <mxCell id="DL42vKzp8nD3nBXhA-Hq-6" value="IDAS" style="rounded=0;whiteSpace=wrap;html=1;fontStyle=1" parent="DL42vKzp8nD3nBXhA-Hq-5" vertex="1">
          <mxGeometry x="402" y="10" width="80" height="40" as="geometry" />
        </mxCell>
        <mxCell id="DL42vKzp8nD3nBXhA-Hq-7" value="CVODE" style="rounded=0;whiteSpace=wrap;html=1;fontStyle=1" parent="DL42vKzp8nD3nBXhA-Hq-5" vertex="1">
          <mxGeometry x="492" y="10" width="80" height="40" as="geometry" />
        </mxCell>
        <mxCell id="DL42vKzp8nD3nBXhA-Hq-8" value="GBODE" style="rounded=0;whiteSpace=wrap;html=1;fontStyle=1" parent="DL42vKzp8nD3nBXhA-Hq-5" vertex="1">
          <mxGeometry x="151" y="10" width="80" height="40" as="geometry" />
        </mxCell>
        <mxCell id="DL42vKzp8nD3nBXhA-Hq-9" value="Euler" style="rounded=0;whiteSpace=wrap;html=1;fontStyle=1" parent="DL42vKzp8nD3nBXhA-Hq-5" vertex="1">
          <mxGeometry x="60" y="10" width="80" height="40" as="geometry" />
        </mxCell>
        <mxCell id="fMTvzNcV0Mz-k2nzS_J5-6" value="Runge Kutta" style="rounded=0;whiteSpace=wrap;html=1;fontStyle=1;dashed=1;dashPattern=12 12;" parent="DL42vKzp8nD3nBXhA-Hq-5" vertex="1">
          <mxGeometry x="151" y="60" width="80" height="40" as="geometry" />
        </mxCell>
        <mxCell id="fMTvzNcV0Mz-k2nzS_J5-20" value="symSolver" style="rounded=0;whiteSpace=wrap;html=1;fontStyle=1;dashed=1;dashPattern=12 12;" parent="DL42vKzp8nD3nBXhA-Hq-5" vertex="1">
          <mxGeometry x="60" y="60" width="80" height="40" as="geometry" />
        </mxCell>
        <mxCell id="fMTvzNcV0Mz-k2nzS_J5-21" value="symSolver&lt;div&gt;Ssc&lt;/div&gt;" style="rounded=0;whiteSpace=wrap;html=1;fontStyle=1;dashed=1;dashPattern=12 12;" parent="DL42vKzp8nD3nBXhA-Hq-5" vertex="1">
          <mxGeometry x="60" y="110" width="80" height="40" as="geometry" />
        </mxCell>
        <mxCell id="OLEORHhMIxXnmYkuvq8G-7" value="DASSL" style="rounded=0;whiteSpace=wrap;html=1;fontStyle=1" vertex="1" parent="DL42vKzp8nD3nBXhA-Hq-5">
          <mxGeometry x="271" y="10" width="80" height="40" as="geometry" />
        </mxCell>
        <mxCell id="fMTvzNcV0Mz-k2nzS_J5-22" value="QSS" style="rounded=0;whiteSpace=wrap;html=1;fontStyle=1;dashed=1;dashPattern=12 12;" parent="DL42vKzp8nD3nBXhA-Hq-5" vertex="1">
          <mxGeometry x="151" y="110" width="80" height="40" as="geometry" />
        </mxCell>
        <mxCell id="DL42vKzp8nD3nBXhA-Hq-10" value="Non-Linear Solver" style="swimlane;horizontal=0;whiteSpace=wrap;html=1;startSize=40;" parent="1" vertex="1">
          <mxGeometry x="9" y="-970" width="1041" height="160" as="geometry" />
        </mxCell>
        <mxCell id="DL42vKzp8nD3nBXhA-Hq-42" value="&lt;code class=&quot;docutils literal notranslate&quot;&gt;SUNNonlinearSolver&lt;/code&gt;" style="rounded=0;whiteSpace=wrap;html=1;dashed=1;verticalAlign=top;opacity=75;dashPattern=1 4;" parent="DL42vKzp8nD3nBXhA-Hq-10" vertex="1">
          <mxGeometry x="382" y="20" width="198" height="130" as="geometry" />
        </mxCell>
        <mxCell id="DL42vKzp8nD3nBXhA-Hq-11" value="KINSOL" style="rounded=0;whiteSpace=wrap;html=1;fontStyle=1" parent="DL42vKzp8nD3nBXhA-Hq-10" vertex="1">
          <mxGeometry x="399" y="50" width="80" height="40" as="geometry" />
        </mxCell>
        <mxCell id="DL42vKzp8nD3nBXhA-Hq-44" value="Newton" style="rounded=0;whiteSpace=wrap;html=1;" parent="DL42vKzp8nD3nBXhA-Hq-10" vertex="1">
          <mxGeometry x="399" y="100" width="80" height="40" as="geometry" />
        </mxCell>
        <mxCell id="DL42vKzp8nD3nBXhA-Hq-51" value="FixedPoint" style="rounded=0;whiteSpace=wrap;html=1;" parent="DL42vKzp8nD3nBXhA-Hq-10" vertex="1">
          <mxGeometry x="491" y="100" width="80" height="40" as="geometry" />
        </mxCell>
        <mxCell id="fMTvzNcV0Mz-k2nzS_J5-7" value="Newton" style="rounded=0;whiteSpace=wrap;html=1;fontStyle=1" parent="DL42vKzp8nD3nBXhA-Hq-10" vertex="1">
          <mxGeometry x="151" y="50" width="80" height="40" as="geometry" />
        </mxCell>
        <mxCell id="fMTvzNcV0Mz-k2nzS_J5-25" value="Homotopy" style="rounded=0;whiteSpace=wrap;html=1;fontStyle=1" parent="DL42vKzp8nD3nBXhA-Hq-10" vertex="1">
          <mxGeometry x="61" y="100" width="80" height="40" as="geometry" />
        </mxCell>
        <mxCell id="fMTvzNcV0Mz-k2nzS_J5-28" value="FixedPoint" style="rounded=0;whiteSpace=wrap;html=1;fontStyle=1" parent="DL42vKzp8nD3nBXhA-Hq-10" vertex="1">
          <mxGeometry x="61" y="50" width="80" height="40" as="geometry" />
        </mxCell>
        <mxCell id="OLEORHhMIxXnmYkuvq8G-2" value="&lt;b&gt;HYBRID&lt;/b&gt;" style="rounded=0;whiteSpace=wrap;html=1;" vertex="1" parent="DL42vKzp8nD3nBXhA-Hq-10">
          <mxGeometry x="718" y="50" width="80" height="40" as="geometry" />
        </mxCell>
        <mxCell id="DL42vKzp8nD3nBXhA-Hq-18" value="Linear Solver" style="swimlane;horizontal=0;whiteSpace=wrap;html=1;startSize=40;" parent="1" vertex="1">
          <mxGeometry x="9" y="-810" width="1041" height="190" as="geometry" />
        </mxCell>
        <mxCell id="DL42vKzp8nD3nBXhA-Hq-23" value="KLU" style="rounded=0;whiteSpace=wrap;html=1;fontStyle=1" parent="DL42vKzp8nD3nBXhA-Hq-18" vertex="1">
          <mxGeometry x="610" y="50" width="80" height="40" as="geometry" />
        </mxCell>
        <mxCell id="DL42vKzp8nD3nBXhA-Hq-27" value="DGETRS" style="rounded=0;whiteSpace=wrap;html=1;" parent="DL42vKzp8nD3nBXhA-Hq-18" vertex="1">
          <mxGeometry x="940" y="110" width="80" height="40" as="geometry" />
        </mxCell>
        <mxCell id="DL42vKzp8nD3nBXhA-Hq-43" value="&lt;code class=&quot;docutils literal notranslate&quot;&gt;SUNLinSol&lt;/code&gt;" style="rounded=0;whiteSpace=wrap;html=1;dashed=1;verticalAlign=top;opacity=75;dashPattern=1 4;" parent="DL42vKzp8nD3nBXhA-Hq-18" vertex="1">
          <mxGeometry x="382" y="20" width="198" height="130" as="geometry" />
        </mxCell>
        <mxCell id="DL42vKzp8nD3nBXhA-Hq-48" value="Dense" style="rounded=0;whiteSpace=wrap;html=1;" parent="DL42vKzp8nD3nBXhA-Hq-18" vertex="1">
          <mxGeometry x="396" y="50" width="80" height="40" as="geometry" />
        </mxCell>
        <mxCell id="DL42vKzp8nD3nBXhA-Hq-56" value="LAPACK" style="rounded=0;whiteSpace=wrap;html=1;" parent="DL42vKzp8nD3nBXhA-Hq-18" vertex="1">
          <mxGeometry x="396" y="100" width="80" height="40" as="geometry" />
        </mxCell>
        <mxCell id="OLEORHhMIxXnmYkuvq8G-5" style="edgeStyle=orthogonalEdgeStyle;rounded=0;orthogonalLoop=1;jettySize=auto;html=1;" edge="1" parent="DL42vKzp8nD3nBXhA-Hq-18" source="DL42vKzp8nD3nBXhA-Hq-57" target="DL42vKzp8nD3nBXhA-Hq-23">
          <mxGeometry relative="1" as="geometry" />
        </mxCell>
        <mxCell id="DL42vKzp8nD3nBXhA-Hq-57" value="KLU" style="rounded=0;whiteSpace=wrap;html=1;" parent="DL42vKzp8nD3nBXhA-Hq-18" vertex="1">
          <mxGeometry x="488" y="50" width="80" height="40" as="geometry" />
        </mxCell>
        <mxCell id="DL42vKzp8nD3nBXhA-Hq-60" style="edgeStyle=orthogonalEdgeStyle;rounded=0;orthogonalLoop=1;jettySize=auto;html=1;" parent="DL42vKzp8nD3nBXhA-Hq-18" source="DL42vKzp8nD3nBXhA-Hq-56" target="DL42vKzp8nD3nBXhA-Hq-27" edge="1">
          <mxGeometry relative="1" as="geometry">
            <Array as="points">
              <mxPoint x="436" y="170" />
              <mxPoint x="971" y="170" />
            </Array>
          </mxGeometry>
        </mxCell>
        <mxCell id="fMTvzNcV0Mz-k2nzS_J5-14" style="edgeStyle=orthogonalEdgeStyle;rounded=0;orthogonalLoop=1;jettySize=auto;html=1;" parent="DL42vKzp8nD3nBXhA-Hq-18" source="fMTvzNcV0Mz-k2nzS_J5-12" target="DL42vKzp8nD3nBXhA-Hq-27" edge="1">
          <mxGeometry relative="1" as="geometry" />
        </mxCell>
        <mxCell id="fMTvzNcV0Mz-k2nzS_J5-12" value="DGESV" style="rounded=0;whiteSpace=wrap;html=1;fontStyle=1" parent="DL42vKzp8nD3nBXhA-Hq-18" vertex="1">
          <mxGeometry x="940" y="50" width="80" height="40" as="geometry" />
        </mxCell>
        <mxCell id="fMTvzNcV0Mz-k2nzS_J5-19" value="Total Pivot" style="rounded=0;whiteSpace=wrap;html=1;fontStyle=1" parent="DL42vKzp8nD3nBXhA-Hq-18" vertex="1">
          <mxGeometry x="61" y="50" width="80" height="40" as="geometry" />
        </mxCell>
        <mxCell id="fMTvzNcV0Mz-k2nzS_J5-15" value="UMFPACK" style="rounded=0;whiteSpace=wrap;html=1;fontStyle=1" parent="DL42vKzp8nD3nBXhA-Hq-18" vertex="1">
          <mxGeometry x="610" y="100" width="80" height="40" as="geometry" />
        </mxCell>
        <mxCell id="fMTvzNcV0Mz-k2nzS_J5-18" value="Lis" style="rounded=0;whiteSpace=wrap;html=1;fontStyle=1" parent="DL42vKzp8nD3nBXhA-Hq-18" vertex="1">
          <mxGeometry x="830" y="50" width="80" height="40" as="geometry" />
        </mxCell>
        <mxCell id="DL42vKzp8nD3nBXhA-Hq-45" style="edgeStyle=orthogonalEdgeStyle;rounded=0;orthogonalLoop=1;jettySize=auto;html=1;" parent="1" source="DL42vKzp8nD3nBXhA-Hq-6" target="DL42vKzp8nD3nBXhA-Hq-42" edge="1">
          <mxGeometry relative="1" as="geometry">
            <Array as="points">
              <mxPoint x="451" y="-960" />
              <mxPoint x="451" y="-960" />
            </Array>
          </mxGeometry>
        </mxCell>
        <mxCell id="DL42vKzp8nD3nBXhA-Hq-46" style="edgeStyle=orthogonalEdgeStyle;rounded=0;orthogonalLoop=1;jettySize=auto;html=1;" parent="1" source="DL42vKzp8nD3nBXhA-Hq-7" target="DL42vKzp8nD3nBXhA-Hq-42" edge="1">
          <mxGeometry relative="1" as="geometry">
            <Array as="points">
              <mxPoint x="541" y="-960" />
              <mxPoint x="541" y="-960" />
            </Array>
          </mxGeometry>
        </mxCell>
        <mxCell id="fMTvzNcV0Mz-k2nzS_J5-3" style="edgeStyle=orthogonalEdgeStyle;rounded=0;orthogonalLoop=1;jettySize=auto;html=1;" parent="1" source="DL42vKzp8nD3nBXhA-Hq-42" target="DL42vKzp8nD3nBXhA-Hq-43" edge="1">
          <mxGeometry relative="1" as="geometry" />
        </mxCell>
        <mxCell id="fMTvzNcV0Mz-k2nzS_J5-24" style="edgeStyle=orthogonalEdgeStyle;rounded=0;orthogonalLoop=1;jettySize=auto;html=1;" parent="1" source="DL42vKzp8nD3nBXhA-Hq-8" target="DL42vKzp8nD3nBXhA-Hq-11" edge="1">
          <mxGeometry relative="1" as="geometry">
            <Array as="points">
              <mxPoint x="260" y="-1100" />
              <mxPoint x="260" y="-900" />
            </Array>
          </mxGeometry>
        </mxCell>
        <mxCell id="fMTvzNcV0Mz-k2nzS_J5-27" style="edgeStyle=orthogonalEdgeStyle;rounded=0;orthogonalLoop=1;jettySize=auto;html=1;" parent="1" source="fMTvzNcV0Mz-k2nzS_J5-7" target="DL42vKzp8nD3nBXhA-Hq-27" edge="1">
          <mxGeometry relative="1" as="geometry">
            <Array as="points">
              <mxPoint x="200" y="-630" />
              <mxPoint x="1000" y="-630" />
            </Array>
          </mxGeometry>
        </mxCell>
      </root>
    </mxGraphModel>
  </diagram>
</mxfile>
